<?xml version="1.0" standalone="no"?><!DOCTYPE svg PUBLIC "-//W3C//DTD SVG 1.1//EN" "http://www.w3.org/Graphics/SVG/1.1/DTD/svg11.dtd"><svg class="icon" width="200px" height="200.00px" viewBox="0 0 1024 1024" version="1.1" xmlns="http://www.w3.org/2000/svg"><path d="M212.992 526.336 212.992 526.336 212.992 526.336 215.04 526.336 212.992 526.336Z"  /><path d="M69.632 79.872l0 866.304 868.352 0L937.984 79.872 69.632 79.872zM720.896 561.152 552.96 561.152l0 167.936c0 28.672-22.528 51.2-49.152 51.2-28.672 0-51.2-22.528-51.2-51.2l0-167.936L286.72 561.152c-28.672 0-51.2-22.528-51.2-51.2 0-28.672 22.528-49.152 51.2-49.152l165.888 0 0-167.936c0-28.672 22.528-51.2 51.2-51.2 26.624 0 49.152 22.528 49.152 51.2l0 167.936 167.936 0c28.672 0 51.2 20.48 51.2 49.152C770.048 540.672 747.52 561.152 720.896 561.152z"  /></svg>