<?xml version="1.0" standalone="no"?><!DOCTYPE svg PUBLIC "-//W3C//DTD SVG 1.1//EN" "http://www.w3.org/Graphics/SVG/1.1/DTD/svg11.dtd"><svg class="icon" width="200px" height="200.00px" viewBox="0 0 1024 1024" version="1.1" xmlns="http://www.w3.org/2000/svg"><path d="M512 1024C229.239611 1024 0.017919 794.741738 0.017919 511.98135 0.017919 229.22096 229.239611-0.000731 512-0.000731 794.760389-0.000731 1023.982081 229.22096 1023.982081 511.98135 1023.982081 794.741738 794.760389 1024 512 1024ZM512 73.176136C269.649625 73.176136 73.158216 269.667545 73.158216 512.017919 73.158216 754.368294 269.649625 950.859703 512 950.859703 754.350375 950.859703 950.841784 754.368294 950.841784 512.017919 950.841784 269.667545 754.350375 73.176136 512 73.176136ZM676.565669 548.588068 493.714926 548.588068C483.621564 548.588068 475.429851 540.396355 475.429851 530.302993L475.429851 493.732845 475.429851 493.696275 475.429851 201.171656C475.429851 191.078295 483.621564 182.886582 493.714926 182.886582L530.285074 182.886582C540.378436 182.886582 548.570149 191.078295 548.570149 201.171656L548.570149 475.411201 676.565669 475.411201C686.65903 475.411201 694.850743 483.602914 694.850743 493.696275L694.850743 530.302993C694.850743 540.396355 686.65903 548.588068 676.565669 548.588068Z" /></svg>