<?xml version="1.0" standalone="no"?><!DOCTYPE svg PUBLIC "-//W3C//DTD SVG 1.1//EN" "http://www.w3.org/Graphics/SVG/1.1/DTD/svg11.dtd"><svg class="icon" width="200px" height="200.00px" viewBox="0 0 1024 1024" version="1.1" xmlns="http://www.w3.org/2000/svg"><path d="M874.496 873.984c8.192-8.192 16.384-16.896 24.064-25.6 78.336-90.112 125.952-207.36 125.952-336.384 0-243.712-170.496-448-398.848-499.2-1.024 0-1.536-0.512-2.56-0.512-3.584-1.024-7.168-1.536-10.752-2.048-1.024 0-2.56-0.512-3.584-0.512-3.072-0.512-6.144-1.024-9.728-1.536-1.536 0-3.072-0.512-4.608-0.512-3.072-0.512-6.144-1.024-8.704-1.536-1.536 0-3.072-0.512-5.12-0.512-3.072-0.512-5.632-0.512-8.704-1.024-1.536 0-3.584-0.512-5.12-0.512-2.56-0.512-5.632-0.512-8.192-1.024-1.536 0-3.584-0.512-5.12-0.512-3.072 0-5.632-0.512-8.704-0.512-1.536 0-3.584 0-5.12-0.512-3.072 0-6.144-0.512-9.216-0.512H512c-5.632 0-11.264 0-16.896 0.512h-4.608c-5.12 0-10.24 0.512-15.36 1.024h-1.536c-5.632 0.512-11.264 1.024-17.408 1.536-1.024 0-2.048 0-3.072 0.512-5.632 0.512-10.752 1.536-16.384 2.048h-0.512c-6.144 1.024-12.288 2.048-17.92 3.072h-0.512C191.488 50.688 17.408 241.664 1.024 476.16v1.536c-0.512 4.608-0.512 9.216-0.512 14.336v4.096c0 5.12-0.512 10.752-0.512 15.872 0 6.144 0 12.288 0.512 17.92v4.096c0.512 6.144 0.512 11.776 1.024 17.92v2.048c0.512 5.632 1.024 10.752 1.536 16.384 0 1.536 0.512 2.56 0.512 4.096 0.512 5.632 1.536 11.776 2.56 17.408 0 1.024 0.512 2.048 0.512 3.072 1.024 5.12 1.536 10.24 2.56 15.36 0 1.024 0.512 2.048 0.512 3.072 1.024 5.632 2.56 11.264 3.584 16.896 0 1.024 0.512 2.048 0.512 3.072 1.536 5.12 2.56 10.752 4.096 15.872 0 0.512 0.512 1.024 0.512 1.536 1.536 5.632 3.584 11.264 5.12 16.896 0.512 1.024 0.512 2.048 1.024 2.56 3.584 11.264 7.68 22.528 12.288 33.792 0.512 0.512 0.512 1.536 1.024 2.048 4.608 11.264 9.728 22.528 15.36 33.28 0 0.512 0.512 1.024 0.512 1.024 78.848 157.696 236.544 268.288 421.376 281.6h1.024c5.12 0.512 10.24 0.512 14.848 1.024h3.584c5.632 0 10.752 0.512 16.384 0.512 116.736 0 224.768-39.424 310.784-104.96 4.096-3.072 8.192-6.656 12.288-9.728 1.536-1.024 2.56-2.048 4.096-3.072 4.096-3.072 7.68-6.656 11.264-9.728 9.216-7.168 16.896-14.336 25.088-22.016-0.512 0-0.512 0 0 0z m98.304-354.816c-45.568 8.192-94.72 18.944-99.328 30.72-8.192 21.504 9.216 23.04 10.752 40.448s-61.952 60.416-61.952 75.264 13.312 48.64 13.312 67.584-17.408 25.6-23.04 44.544-21.504 18.944-37.888 37.888-31.232 28.16-43.008 25.6c-12.288-2.56-12.288-18.944-21.504-45.568-9.216-27.136-12.288-76.8-5.632-96.768 6.656-19.968-4.096-28.16-14.848-41.984-10.752-13.312 4.096-25.6 0-39.936s-21.504-4.608-48.64-0.512-53.76-12.288-76.8-51.2 34.816-91.648 37.888-104.96c2.56-13.312-4.096-45.568 0-63.488 4.096-17.408 31.232-23.04 28.16-37.888-2.56-14.848 6.656-47.104 8.192-59.392 1.536-12.288 41.984-21.504 51.2-23.04s13.312-29.696 19.968-40.448c4.096-6.144 73.728-27.136 132.608-44.032C923.136 274.944 972.8 387.584 972.8 512v7.168zM251.392 132.096c20.48 54.784 45.056 112.64 57.856 115.712 24.064 5.632 99.84 25.6 113.152 40.448 13.312 14.848 31.232 33.792 27.136 48.64-4.096 14.848-70.144 38.912-89.088 57.856-18.944 18.944-41.984 74.24-33.792 90.112 8.192 16.384-33.792 43.008-16.384 61.952s37.888 32.256 61.952 28.16c24.064-4.096 38.912 10.752 56.832 19.968 17.408 9.216 28.16 0 34.816 8.192s-6.656 38.912 10.752 43.008 51.2-9.216 68.608 10.752c17.408 19.968 18.944 67.584-9.216 79.36-28.16 12.288-57.856 63.488-63.488 86.016-5.632 23.04-67.584 68.608-72.704 89.088-1.536 6.144-6.144 23.04-11.776 43.008-12.288-3.584-24.576-7.68-36.352-11.776 7.68-21.504 12.8-38.912 11.776-44.544-4.096-17.408-1.536-47.104 9.216-70.144s9.216-47.104 4.096-64.512c-5.632-17.408-28.16-31.232-29.696-44.544-1.536-13.312-25.6-18.944-18.944-56.832 6.656-37.888 8.192-63.488-2.56-74.24-10.752-10.752-45.568-43.008-61.952-43.008-16.384 0-48.64-2.56-52.736-14.848S183.296 455.68 164.352 450.56c-18.944-5.632-36.352-2.56-45.568-32.256-3.584-11.264-25.088-22.016-50.688-30.72 29.184-104.448 95.232-194.56 183.296-255.488z" /></svg>