<?xml version="1.0" standalone="no"?><!DOCTYPE svg PUBLIC "-//W3C//DTD SVG 1.1//EN" "http://www.w3.org/Graphics/SVG/1.1/DTD/svg11.dtd"><svg class="icon" width="200px" height="200.00px" viewBox="0 0 1024 1024" version="1.1" xmlns="http://www.w3.org/2000/svg"><path d="M1005.259895 914.741785c-58.826762-58.841211-117.669779-117.682423-176.514603-176.525441 145.711336-193.251033 117.082758-466.313485-65.571185-625.137975C580.52197-45.744314 306.131946-36.174963 134.978202 134.97878c-171.157356 171.139294-180.710451 445.540155-21.902217 628.17423 158.826296 182.652137 431.892361 211.298778 625.15965 65.572991 58.843018 58.843018 117.667973 117.684229 176.527246 176.525441 24.98724 24.98724 65.506161 24.98724 90.495208 0 25.005302-24.98724 25.005302-65.522417 0.001806-90.509657z m-544.448733-69.947655c-212.082677 0-384.00587-171.919581-384.00587-383.986002 0-212.079064 171.923193-384.002258 384.00587-384.002258s384.00587 171.923193 384.005871 384.002258c0 212.066421-171.923193 383.986002-384.005871 383.986002z" fill="#231815" /><path d="M294.407776 499.202935h128.006773v128.006773c0 27.143866 11.252747 38.396613 38.396613 38.396614 27.158316 0 38.396613-11.252747 38.396614-38.396614v-128.006773h128.006773c27.14206 0 38.396613-11.252747 38.396613-38.394807 0-27.158316-11.252747-38.411063-38.396613-38.411063h-128.006773v-127.988711c0-27.160122-11.238297-38.394807-38.396614-38.394807-27.14206 0-38.396613 11.236491-38.396613 38.394807v127.988711h-128.006773c-27.14206 0-38.396613 11.252747-38.396614 38.411063 0 27.14206 11.252747 38.394807 38.396614 38.394807z" fill="#231815" /></svg>