<?xml version="1.0" standalone="no"?><!DOCTYPE svg PUBLIC "-//W3C//DTD SVG 1.1//EN" "http://www.w3.org/Graphics/SVG/1.1/DTD/svg11.dtd"><svg class="icon" width="200px" height="200.00px" viewBox="0 0 1024 1024" version="1.1" xmlns="http://www.w3.org/2000/svg"><path d="M248.685714 1024h-219.428571c-21.942857 0-29.257143-7.314286-29.257143-29.257143V607.085714c0-21.942857 7.314286-29.257143 29.257143-29.257143h226.742857c7.314286 0 29.257143 21.942857 29.257143 29.257143v387.657143c-7.314286 21.942857-21.942857 29.257143-36.571429 29.257143z m373.028572-7.314286H387.657143c-21.942857 0-29.257143-7.314286-29.257143-29.257143V29.257143c7.314286-21.942857 14.628571-29.257143 29.257143-29.257143h234.057143c7.314286 0 29.257143 7.314286 29.257143 29.257143v965.485714c0 7.314286-14.628571 21.942857-29.257143 21.942857z m373.028571 0h-226.742857c-21.942857 0-29.257143-7.314286-29.257143-29.257143V365.714286c0-21.942857 7.314286-29.257143 29.257143-29.257143h226.742857c21.942857 0 29.257143 7.314286 29.257143 29.257143v621.714285c0 14.628571-7.314286 29.257143-29.257143 29.257143z" /></svg>