<?xml version="1.0" standalone="no"?><!DOCTYPE svg PUBLIC "-//W3C//DTD SVG 1.1//EN" "http://www.w3.org/Graphics/SVG/1.1/DTD/svg11.dtd"><svg class="icon" width="200px" height="200.00px" viewBox="0 0 1024 1024" version="1.1" xmlns="http://www.w3.org/2000/svg"><path d="M512 327.68C343.04 327.68 204.8 512 204.8 512s138.24 184.32 307.2 184.32S819.2 512 819.2 512s-138.24-184.32-307.2-184.32zM512 614.4c-56.32 0-102.4-46.08-102.4-102.4s46.08-102.4 102.4-102.4 102.4 46.08 102.4 102.4-46.08 102.4-102.4 102.4z" fill="#333333" /><path d="M512 558.08c25.6 0 46.08-20.48 46.08-46.08s-20.48-46.08-46.08-46.08-46.08 20.48-46.08 46.08 20.48 46.08 46.08 46.08z" fill="#333333" /><path d="M957.44 322.56c-18.773333 0-32.426667-15.36-32.426667-32.426667V155.306667c0-30.72-25.6-56.32-56.32-56.32H733.866667c-18.773333 0-32.426667-15.36-32.426667-32.426667S716.8 34.133333 733.866667 34.133333h133.12c68.266667 0 122.88 54.613333 122.88 121.173334V290.133333c0 17.066667-15.36 32.426667-32.426667 32.426667zM868.693333 989.866667H733.866667c-18.773333 0-32.426667-15.36-32.426667-32.426667s15.36-32.426667 32.426667-32.426667h133.12c30.72 0 56.32-25.6 56.32-56.32V733.866667c0-18.773333 15.36-32.426667 32.426666-32.426667s34.133333 15.36 34.133334 32.426667v133.12c0 68.266667-54.613333 122.88-121.173334 122.88zM290.133333 989.866667H155.306667C88.746667 989.866667 34.133333 935.253333 34.133333 868.693333V733.866667c0-18.773333 15.36-32.426667 32.426667-32.426667s34.133333 15.36 34.133333 32.426667v133.12c0 30.72 25.6 56.32 56.32 56.32H290.133333c18.773333 0 32.426667 15.36 32.426667 32.426666s-15.36 34.133333-32.426667 34.133334zM66.56 322.56C49.493333 322.56 34.133333 307.2 34.133333 290.133333V155.306667C34.133333 88.746667 88.746667 34.133333 155.306667 34.133333H290.133333c18.773333 0 32.426667 15.36 32.426667 32.426667s-15.36 34.133333-32.426667 34.133333H155.306667c-30.72 0-56.32 25.6-56.32 56.32V290.133333c1.706667 17.066667-13.653333 32.426667-32.426667 32.426667z" fill="#333333" /></svg>