<?xml version="1.0" standalone="no"?><!DOCTYPE svg PUBLIC "-//W3C//DTD SVG 1.1//EN" "http://www.w3.org/Graphics/SVG/1.1/DTD/svg11.dtd"><svg class="icon" width="200px" height="200.00px" viewBox="0 0 1024 1024" version="1.1" xmlns="http://www.w3.org/2000/svg"><path d="M279.04 305.984h211.968c5.312 0 8 2.688 8 8v48c0 5.376-2.688 8-8 8H278.976c-5.312 0-8-2.624-8-8v-48c0-5.312 2.688-8 8-8z m0 132.032h211.968c5.312 0 8 2.624 8 8v48c0 5.312-2.688 8-8 8H278.976c-5.312 0-8-2.688-8-8v-48c0-5.376 2.688-8 8-8z m0 133.952h211.968c5.312 0 8 2.688 8 8.064v48c0 5.312-2.688 7.936-8 7.936H278.976c-5.312 0-8-2.624-8-7.936v-48c0-5.376 2.688-8.064 8-8.064z m672.96 264.064h-52.032V385.024c0-36.48-29.504-65.92-65.92-66.048h-190.08V193.024c0-36.48-29.504-65.92-65.92-66.048H192c-36.48 0.064-65.92 29.568-65.984 66.048v642.944h-54.016a8 8 0 0 0-8 8.064V896c0 4.416 3.584 8 8 8h880A8 8 0 0 0 960 896v-52.032a8 8 0 0 0-8-7.936zM832 386.944v448h-188.032v-448H832z m-638.016-192H576v640H193.984v-640z" /></svg>