<?xml version="1.0" standalone="no"?><!DOCTYPE svg PUBLIC "-//W3C//DTD SVG 1.1//EN" "http://www.w3.org/Graphics/SVG/1.1/DTD/svg11.dtd"><svg class="icon" width="200px" height="200.00px" viewBox="0 0 1024 1024" version="1.1" xmlns="http://www.w3.org/2000/svg"><path d="M614.725125 60.260157c3.850928-1.130713 6.087067-1.788189 6.939618-2.037451C620.64963 58.515318 617.983603 59.302843 614.725125 60.260157z"  /><path d="M871.234488 313.576067c-99.954336-340.066549 24.210993 82.35061-75.743343-257.705101-7.282805-24.763706-33.289212-38.957229-58.052918-31.678036-66.332774 19.496677-103.563226 30.438947-123.193565 36.208114 0.169788-0.050575 0.3179-0.093925 0.480463-0.1445-14.171848 4.168828-51.593763 15.168899-134.988386 39.679729-24.763706 7.279193-38.953616 33.281987-31.674423 58.049305 7.282805 24.760093 33.281987 38.953616 58.045693 31.678036 103.639088-30.464235 124.956467-36.728314 128.547294-37.786778-0.04335 0.010838 0.032513-0.010838 0.0578-0.01445 0.0867-0.025288 0.2312-0.068638 0.437113-0.126438-0.122825 0.032513-0.2601 0.07225-0.3757 0.104763 0.195075-0.0578 0.343188-0.10115 0.422663-0.126438 0.007225 0 0.007225 0 0.007225 0 0.079475-0.025288 0.0578-0.01445 0.0578-0.01445 1.365526-0.400988 5.360954-1.575051 15.479574-4.548141-96.468271 176.947605 4.631228-6.936005-115.043759 212.407931-105.398377-26.86257-220.265124 2.239752-304.552036 86.530276-58.168518 58.175743-94.224907 138.694814-94.224907 227.388979 0 88.712227 36.060001 169.231299 94.224907 227.396204 58.168518 58.175743 138.687589 94.224907 227.396204 94.224907 88.70139 0 169.220461-36.049164 227.388979-94.224907 58.175743-58.168518 94.224907-138.687589 94.224907-227.396204 0-88.694165-36.049164-169.213236-94.224907-227.388979-19.738714-19.738714-41.12473-36.399577-63.612559-50.047612 150.637748-276.10719-21.898991 38.642941 113.873308-210.269329 5.574092 18.940351 7.109405 24.19293 7.452593 25.341706 0.780301 2.644352 6.459155 21.989304 37.859028 128.832682 7.282805 24.760093 33.289212 38.953616 58.052918 31.678036C864.327383 364.338954 878.513681 338.33616 871.234488 313.576067zM686.639215 673.478868c0 62.944246-25.576519 120.03985-66.820461 161.283793s-98.339547 66.820461-161.276568 66.820461c-62.944246 0-120.032625-25.576519-161.272956-66.820461s-66.820461-98.339547-66.820461-161.283793c0-62.937021 25.580131-120.0254 66.820461-161.265731 41.243943-41.243943 98.32871-66.824074 161.272956-66.824074 62.937021 0 120.032625 25.580131 161.276568 66.824074C661.062697 553.453468 686.639215 610.541847 686.639215 673.478868z"  /><path d="M546.250138 356.882749c-0.755013 0.223975-1.300501 0.382925-1.640076 0.480463C544.985762 357.254837 545.56015 357.085049 546.250138 356.882749z"  /><path d="M547.113526 356.626261c-0.30345 0.090313-0.59245 0.1734-0.863388 0.252875C546.51385 356.806886 546.792013 356.723799 547.113526 356.626261z"  /><path d="M552.452805 355.058435c-0.010838 0-0.018063 0.003613-0.0289 0.007225C552.434742 355.06566 552.441967 355.062048 552.452805 355.058435z"  /><path d="M552.423905 355.06566c-2.286714 0.671925-4.035165 1.188513-5.310379 1.560601C548.731927 356.149411 550.736866 355.564185 552.423905 355.06566z"  /><path d="M544.534199 357.384887c-0.140888 0.039738-0.238425 0.07225-0.307063 0.090313C544.299386 357.453524 544.396924 357.424624 544.534199 357.384887z"  /><path d="M544.610061 357.363212c-0.0289 0.007225-0.050575 0.01445-0.075863 0.021675C544.563099 357.377662 544.581161 357.374049 544.610061 357.363212z"  /><path d="M561.339561 394.770677c-0.007225 0-0.01445 0.003613-0.025288 0.007225 0.01445-0.003613 0.032513-0.007225 0.054188-0.01445C561.357624 394.763452 561.350399 394.767064 561.339561 394.770677 561.317886 394.774289 561.346786 394.767064 561.339561 394.770677z"  /><path d="M544.227136 357.475199C544.111536 357.511324 544.104311 357.511324 544.227136 357.475199L544.227136 357.475199z"  /></svg>