<?xml version="1.0" standalone="no"?><!DOCTYPE svg PUBLIC "-//W3C//DTD SVG 1.1//EN" "http://www.w3.org/Graphics/SVG/1.1/DTD/svg11.dtd"><svg class="icon" width="200px" height="200.00px" viewBox="0 0 1024 1024" version="1.1" xmlns="http://www.w3.org/2000/svg"><path d="M 774.987 760.414 l -216.512 0 l 0 -119.588 c 67.915 -9.92716 128.833 -41.7967 175.12 -88.08 c 56.3876 -56.3839 91.3457 -134.45 91.3457 -220.442 c 0 -85.9956 -34.9582 -164.055 -91.3457 -220.449 c -56.3912 -56.3912 -134.45 -91.3385 -220.446 -91.3385 c -85.992 0 -164.055 34.9473 -220.446 91.3385 C 236.308 168.249 201.361 246.311 201.361 332.303 c 0 85.992 34.9473 164.058 91.3421 220.442 c 46.2834 46.2834 107.208 78.1529 175.116 88.08 l 0 119.588 L 251.315 760.414 c -25.0238 0 -45.3297 20.3131 -45.3297 45.3369 c 0 25.0202 20.3059 45.3333 45.3297 45.3333 L 467.819 851.084 l 0 96.9162 c 0 25.0274 20.3131 45.3333 45.3297 45.3333 c 25.0238 0 45.3297 -20.3059 45.3297 -45.3333 l 0 -96.9162 l 216.512 0 c 25.0166 0 45.3333 -20.3131 45.3333 -45.3333 C 820.32 780.727 800.003 760.414 774.987 760.414 Z M 513.149 553.432 c -61.0188 0 -116.362 -24.7962 -156.346 -64.7794 c -39.9832 -39.9832 -64.7794 -95.3339 -64.7794 -156.349 c 0 -61.0188 24.7962 -116.362 64.7794 -156.346 c 39.9832 -39.9868 95.3303 -64.783 156.346 -64.783 s 116.362 24.7962 156.342 64.783 c 39.9832 39.9832 64.7902 95.3303 64.7902 156.346 c 0 61.0152 -24.8034 116.366 -64.7902 156.349 C 629.511 528.636 574.164 553.432 513.149 553.432 Z" /></svg>