<?xml version="1.0" standalone="no"?><!DOCTYPE svg PUBLIC "-//W3C//DTD SVG 1.1//EN" "http://www.w3.org/Graphics/SVG/1.1/DTD/svg11.dtd"><svg class="icon" width="200px" height="200.00px" viewBox="0 0 1024 1024" version="1.1" xmlns="http://www.w3.org/2000/svg"><path d="M817.706667 884.48H206.293333a74.666667 74.666667 0 0 1-54.4-23.893333 76.736 76.736 0 0 1-20.053333-58.24l35.626667-440.32c3.2-39.04 35.84-69.76 74.453333-69.76h540.16c38.613333 0 71.253333 30.72 74.453333 69.76l35.626667 440.32c1.706667 21.333333-5.546667 42.666667-20.053333 58.24a74.666667 74.666667 0 0 1-54.4 23.893333zM241.92 356.266667c-5.546667 0-10.026667 4.693333-10.666667 10.88L195.84 807.466667c-0.426667 4.906667 1.92 8.32 3.2 9.813333 1.493333 1.493333 3.84 3.413333 7.466667 3.413333h611.2c3.626667 0 5.973333-1.92 7.466666-3.413333 1.28-1.493333 3.626667-4.693333 3.2-9.813333l-35.626666-440.32c-0.426667-6.186667-5.12-10.88-10.666667-10.88H241.92z" fill="#2B2C2C" /><path d="M736 324.266667h-64v-75.52c0-24.96-23.893333-45.44-53.333333-45.44H405.333333c-29.44 0-53.333333 20.266667-53.333333 45.44v75.52h-64v-75.52c0-60.373333 52.693333-109.44 117.333333-109.44h213.333334c64.64 0 117.333333 49.066667 117.333333 109.44v75.52zM213.333333 459.306667h597.333334v64H213.333333z" fill="#2B2C2C" /><path d="M512.64 640.213333c-76.373333 0-138.666667-62.293333-138.666667-138.666666h64c0 41.173333 33.493333 74.666667 74.666667 74.666666s74.666667-33.493333 74.666667-74.666666h64c0 76.373333-62.08 138.666667-138.666667 138.666666z" fill="#2B2C2C" /></svg>