<?xml version="1.0" standalone="no"?><!DOCTYPE svg PUBLIC "-//W3C//DTD SVG 1.1//EN" "http://www.w3.org/Graphics/SVG/1.1/DTD/svg11.dtd"><svg class="icon" width="200px" height="200.00px" viewBox="0 0 1024 1024" version="1.1" xmlns="http://www.w3.org/2000/svg"><path d="M980.322411 166.909763a140.98426 140.98426 0 0 1 42.903265 87.469893V893.053268a130.946732 130.946732 0 0 1-130.774659 130.946732H131.434269A130.946732 130.946732 0 0 1 0.659609 893.053268V130.946732A130.946732 130.946732 0 0 1 131.434269 0h254.035512a135.076458 135.076458 0 0 1 95.442559 48.35221l41.813476 48.294852a84.028455 84.028455 0 0 0 21.967849 25.179858 53.399653 53.399653 0 0 0 32.693665 9.119812h308.754383a134.674957 134.674957 0 0 1 94.180698 35.963031z m-229.429228 439.012827a43.591553 43.591553 0 0 0-6.940234-47.49185L544.80838 342.881981a51.621576 51.621576 0 0 0-13.651039-9.922814 21.394275 21.394275 0 0 0-18.641125 1.26186 47.147706 47.147706 0 0 0-18.641125 5.735731 69.172912 69.172912 0 0 0-13.651039 10.553744L281.079482 558.602812a38.658825 38.658825 0 0 0-12.446535 22.942923 43.362124 43.362124 0 0 0 4.990086 24.319498 39.691256 39.691256 0 0 0 16.863048 18.067551 48.35221 48.35221 0 0 0 22.942923 5.735731h103.243152v143.393267a50.359715 50.359715 0 0 0 15.54383 32.980452 49.786142 49.786142 0 0 0 32.923094 15.601187h94.639557a42.960623 42.960623 0 0 0 48.524281-48.581639v-143.393267h95.729345a39.633899 39.633899 0 0 0 47.262421-23.745925z" /></svg>