<?xml version="1.0" standalone="no"?><!DOCTYPE svg PUBLIC "-//W3C//DTD SVG 1.1//EN" "http://www.w3.org/Graphics/SVG/1.1/DTD/svg11.dtd"><svg class="icon" width="200px" height="200.00px" viewBox="0 0 1024 1024" version="1.1" xmlns="http://www.w3.org/2000/svg"><path d="M728.83 440.65h-48.51v32.99h49.82c9.26 0 15.69-2.05 19.66-5.65 3.36-3.04 4.91-6.9 4.91-12.89 0-8.53-4.8-13.2-19.13-14.23l-6.75-0.22z m-48.51 98.52v43.81h56.04c9.88 0 16.81-2.27 21.22-6.32 3.84-3.53 5.64-8.05 5.64-14.81 0-7.31-1.81-12.29-5.51-16.06-3.09-3.15-7.57-5.26-13.69-6.12l-6.68-0.43-57.02-0.07zM461.23 438.05c-18.61 0-33.83 6.99-46.42 21.23-12.59 14.24-18.76 31.47-18.76 52.24 0.37 21.96 6.6 39.41 18.76 53.18 12.18 13.78 27.49 20.81 46.16 21.24 19.18-0.42 34.49-7.46 46.67-21.24 12.17-13.77 18.39-31.22 18.76-52.9 0-21.06-6.18-38.29-18.76-52.53-12.58-14.23-27.8-21.22-46.41-21.22z m270-65.59l12.55 0.48c21.56 1.68 39.22 7.74 52.87 18.53 16.85 13.44 25.53 32.93 25.53 57.41-0.45 16.85-4.82 31.39-12.88 43.31l-5.28 6.83-1.58 1.54 4.24 3.42 3.39 3.33 3.18 3.54 5.69 7.69c8.71 13.24 13.07 28.83 13.07 46.29 0 25.74-8.27 47.07-24.62 62.84-14.41 13.8-33.49 21.5-56.96 23.42l-12.1 0.48H612.88v-279.1l118.35-0.01zM461.56 368c39.43 0 71.98 14.35 96.81 43 23.61 27.27 35.51 61.15 35.51 100.92-0.24 39.58-12.11 73.5-35.37 100.92-23.31 27.76-55.79 42.08-97.25 43.16-40.85-1.08-73.34-15.39-96.6-43.1-23.31-27.48-35.18-61.4-35.42-101.08 0-39.66 11.9-73.55 35.52-100.82 24.82-28.65 57.37-43 96.8-43z m-149.36 4.45l-0.01 183.4-0.5 12.18c-2.11 25.76-10.83 46.8-26.06 62.26-14.4 14.8-33.21 23.12-56.02 25.2l-11.73 0.51H192v-68.94l26.14 0.02 6.62-0.38c12.31-1.61 18.37-8.34 19.69-23.67l0.28-7.11V372.45h67.47zM512 128c-212.08 0-384 171.92-384 384s171.92 384 384 384 384-171.92 384-384-171.92-384-384-384z m0-64c247.42 0 448 200.58 448 448S759.42 960 512 960 64 759.42 64 512 264.58 64 512 64z" /></svg>