<?xml version="1.0" standalone="no"?><!DOCTYPE svg PUBLIC "-//W3C//DTD SVG 1.1//EN" "http://www.w3.org/Graphics/SVG/1.1/DTD/svg11.dtd"><svg class="icon" width="200px" height="200.00px" viewBox="0 0 1024 1024" version="1.1" xmlns="http://www.w3.org/2000/svg"><path d="M984.9 238.7L762.4 360V217.1c0-36.3-29-64.9-64.9-64.9H67.3C31 152.2 2 181.2 2 217.1v589.8c0 36.3 29 64.9 65.3 64.9h631c36.3 0 64.9-29 64.9-64.9V663.6l220.4 120.8s13.1 5.3 24.5-1.2c13.9-8.6 13.9-20.8 13.9-20.8V255.9s-3.7-12.7-15.5-16.3c-12.3-4.1-21.6-0.9-21.6-0.9zM512.2 521.2c-1.2 1.6-3.3 3.7-4.9 4.9L323.2 644c-3.3 1.2-5.3 3.3-8.6 3.3-8.6 0-15.5-6.9-15.5-15.9V395.1c0-8.6 6.5-15.9 15.5-15.9 3.3 0 6.1 0.4 8.6 3.3l184.1 118c7.8 2.3 9.8 12.5 4.9 20.7z" /></svg>