<?xml version="1.0" standalone="no"?><!DOCTYPE svg PUBLIC "-//W3C//DTD SVG 1.1//EN" "http://www.w3.org/Graphics/SVG/1.1/DTD/svg11.dtd"><svg class="icon" width="200px" height="200.00px" viewBox="0 0 1024 1024" version="1.1" xmlns="http://www.w3.org/2000/svg"><path d="M1024 597.333333v-170.666666l-126.833778-14.08a396.145778 396.145778 0 0 0-42.496-102.712889l79.672889-99.555556-120.689778-120.718222-99.555555 79.701333a396.373333 396.373333 0 0 0-102.712889-42.524444L597.333333 0h-170.666666l-14.108445 126.776889a395.776 395.776 0 0 0-102.684444 42.524444L210.289778 89.6 89.543111 210.318222l79.729778 99.555556a397.710222 397.710222 0 0 0-42.496 102.712889L0 426.666667v170.666666l126.776889 14.08a396.714667 396.714667 0 0 0 42.496 102.684445l-79.729778 99.584 120.746667 120.718222 99.584-79.701333a394.723556 394.723556 0 0 0 102.684444 42.496L426.666667 1024h170.666666l14.051556-126.805333a393.159111 393.159111 0 0 0 102.656-42.496l99.612444 79.701333 120.689778-120.718222-79.672889-99.612445a392.192 392.192 0 0 0 42.496-102.656L1024 597.333333z m-512 56.888889a142.250667 142.250667 0 0 1 0-284.444444c78.449778 0 142.222222 63.658667 142.222222 142.222222 0 78.478222-63.772444 142.222222-142.222222 142.222222z" /></svg>