<?xml version="1.0" standalone="no"?><!DOCTYPE svg PUBLIC "-//W3C//DTD SVG 1.1//EN" "http://www.w3.org/Graphics/SVG/1.1/DTD/svg11.dtd"><svg class="icon" width="200px" height="200.00px" viewBox="0 0 1024 1024" version="1.1" xmlns="http://www.w3.org/2000/svg"><path d="M928.685714 200.571429c-0.571429-1.028571-1.371429-2.057143-2.285714-2.857143-5.714286-5.714286-14.971429-5.714286-20.685714 0L708.8 394.628571l-77.6-77.6L828.228571 120c0.914286-0.914286 1.6-1.828571 2.285715-2.857143 4.114286-6.971429 1.828571-15.885714-5.142857-20-112.228571-66.285714-259.2-51.085714-355.771429 45.371429-76.571429 76.571429-101.942857 185.142857-76 282.742857l-334.857143 334.857143c-3.428571 3.428571-3.2 9.028571 0.342857 12.571428l193.942857 193.942857c3.542857 3.542857 9.257143 3.771429 12.571429 0.342858l334.742857-334.742858c97.714286 26.057143 206.285714 0.8 282.971429-75.885714 96.457143-96.571429 111.657143-243.542857 45.371428-355.771428zM825.142857 498.057143c-66.4 66.4-166.057143 79.2-245.257143 38.4l-10.057143 10.057143-0.114285-0.114286-313.142857 313.257143-90.514286-90.514286 262.971428-262.971428s0 0.114286 0.114286 0.114285l60.342857-60.342857c-40.8-79.2-28-178.857143 38.4-245.257143a210.514286 210.514286 0 0 1 164.571429-61.142857L540.571429 291.314286a36.628571 36.628571 0 0 0 0 51.771428l142.285714 142.285715a36.628571 36.628571 0 0 0 51.771428 0l151.771429-151.771429c4.228571 59.2-16.457143 119.771429-61.257143 164.457143z" /></svg>